<?xml version="1.0" encoding="UTF-8"?>
<svg id="_レイヤー_1" data-name="レイヤー 1" xmlns="http://www.w3.org/2000/svg" viewBox="0 0 256 256">
  <defs>
    <style>
      .cls-1 {
        fill: #404040;
      }

      .cls-1, .cls-2 {
        stroke-width: 0px;
      }

      .cls-2 {
        fill: #fff;
      }
    </style>
  </defs>
  <rect class="cls-1" y="58" width="256" height="140" rx="20" ry="20"/>
  <g>
    <path class="cls-2" d="m39.95,94.92h21c11.9,0,19.7,2.7,25.2,8.6,5.5,5.9,8.3,14.2,8.3,24.5,0,12-4,21.8-11.3,27.8-5.2,4.3-10.5,5.8-20.3,5.8h-22.9v-66.7Zm19.7,56.3c6.5,0,8.8-.2,11.3-1.1,7.7-2.6,11.9-10.5,11.9-22.2,0-8.1-2.6-14.9-7.1-18.8-3.6-3-6.9-3.8-15.9-3.8h-8.6v45.9h8.4Z"/>
    <path class="cls-2" d="m151.25,161.62h-44.1v-66.7h42.2v10.6h-30.9v17h28.3v10.4h-28.3v18.2h32.8v10.5Z"/>
    <path class="cls-2" d="m216.95,134.92c0,9.9-1.6,15.1-6.2,20-4.8,5.1-11.6,7.7-19.8,7.7s-15.9-2.9-20.4-8.1c-3.9-4.6-5.4-10-5.4-19.6v-40h11.2v40c0,11.5,5.2,17.8,14.5,17.8,4.8,0,9.1-1.9,11.7-5.2,2.4-2.9,3.1-5.7,3.1-12.6v-40h11.3v40Z"/>
  </g>
</svg>