<?xml version="1.0" encoding="UTF-8"?>
<svg id="_レイヤー_1" data-name="レイヤー 1" xmlns="http://www.w3.org/2000/svg" viewBox="0 0 256 256">
  <defs>
    <style>
      .cls-1 {
        fill: #404040;
      }

      .cls-1, .cls-2 {
        stroke-width: 0px;
      }

      .cls-2 {
        fill: #fff;
      }
    </style>
  </defs>
  <rect class="cls-1" y="58" width="256" height="140" rx="20" ry="20"/>
  <g>
    <path class="cls-2" d="m79.9,161.62h-44.1v-66.7h42.2v10.6h-30.9v17h28.3v10.4h-28.3v18.2h32.8v10.5Z"/>
    <path class="cls-2" d="m151.1,161.62h-12.5l-33-49.2v49.2h-11.1v-66.7h13.3l32.4,48.7v-48.7h10.9v66.7Z"/>
    <path class="cls-2" d="m222.9,161.62h-9.7v-6.4c-4.5,5.4-9.6,7.8-17,7.8-9,0-17.8-3.7-23.1-9.7-5-5.7-8.3-15.6-8.3-25,0-10.7,4.3-21.3,11.2-27.4,5.3-4.8,12.6-7.4,20.9-7.4,11.8,0,20.4,5.3,26,15.9l-10,5c-4.8-7.9-9.4-10.9-16.6-10.9-12,0-19.9,9.9-19.9,24.9s7.8,24.6,20.1,24.6c6.1,0,11.6-2.8,14.4-7.4,1.4-2.3,2-4.9,2-9.2v-2.5h-19.3v-9.4h29.3v37.1Z"/>
  </g>
</svg>