<?xml version="1.0" encoding="UTF-8"?>
<svg id="_レイヤー_1" data-name="レイヤー 1" xmlns="http://www.w3.org/2000/svg" viewBox="0 0 256 256">
  <defs>
    <style>
      .cls-1 {
        fill: #404040;
      }

      .cls-1, .cls-2 {
        stroke-width: 0px;
      }

      .cls-2 {
        fill: #fff;
      }
    </style>
  </defs>
  <rect class="cls-1" y="58" width="256" height="140" rx="20" ry="20"/>
  <g>
    <path class="cls-2" d="m89.15,161.62h-44.1v-66.7h42.2v10.6h-30.9v17h28.3v10.4h-28.3v18.2h32.8v10.5Z"/>
    <path class="cls-2" d="m114.35,161.62h-11.3v-66.7h18.5c11.2,0,15.9,1.1,20.1,4.5,4.7,3.9,7.1,9.6,7.1,16.8s-2.7,13.5-7.7,17c-3.8,2.8-8.7,3.7-18.9,3.7h-7.8v24.7Zm7.1-34.7c8.1,0,9.9-.3,12.2-2.1,2.5-1.9,3.9-5.1,3.9-8.9s-1.4-6.8-3.9-8.7c-2-1.6-4.9-2.2-11-2.2h-8.3v21.9h7.1Z"/>
    <path class="cls-2" d="m209.35,104.22c4.8,5.9,7.6,15.2,7.6,25.2,0,19.9-12.3,33.6-30.3,33.6-9.4,0-17.9-3.9-23.4-10.7-4.7-5.8-7.1-13.7-7.1-23.6,0-21.3,11.9-35.1,30-35.1,9.3,0,17.9,3.9,23.2,10.6Zm-42.1,24.1c0,15.2,7.5,24.8,19.2,24.8s19-9.4,19-24.6-7.6-24.7-19.2-24.7-19,9.5-19,24.5Z"/>
  </g>
</svg>