<?xml version="1.0" encoding="UTF-8"?>
<svg id="_レイヤー_1" data-name="レイヤー 1" xmlns="http://www.w3.org/2000/svg" viewBox="0 0 256 256">
  <defs>
    <style>
      .cls-1 {
        fill: #404040;
      }

      .cls-1, .cls-2 {
        stroke-width: 0px;
      }

      .cls-2 {
        fill: #fff;
      }
    </style>
  </defs>
  <rect class="cls-1" y="58" width="256" height="140" rx="20" ry="20"/>
  <g>
    <path class="cls-2" d="m69.5,143.72c0,8-1.3,11.6-5.6,15.2-3.3,2.7-7.9,4.1-13.6,4.1-5,0-10.8-1.2-14.7-3.1l3.8-8.8c3.6,1.3,6.9,2,9.1,2,3.9,0,7.1-1.4,8.5-3.6.9-1.6,1.2-3.9,1.2-9.3v-45.3h11.3v48.8Z"/>
    <path class="cls-2" d="m103.4,161.62h-11.3v-66.7h18.5c11.2,0,15.9,1.1,20.1,4.5,4.7,3.9,7.1,9.6,7.1,16.8s-2.7,13.5-7.7,17c-3.8,2.8-8.7,3.7-18.9,3.7h-7.8v24.7Zm7.1-34.7c8.1,0,9.9-.3,12.2-2.1,2.5-1.9,3.9-5.1,3.9-8.9s-1.4-6.8-3.9-8.7c-2-1.6-4.9-2.2-11-2.2h-8.3v21.9h7.1Z"/>
    <path class="cls-2" d="m209.1,161.62h-12.5l-33-49.2v49.2h-11.1v-66.7h13.3l32.4,48.7v-48.7h10.9v66.7Z"/>
  </g>
</svg>