<?xml version="1.0" encoding="UTF-8"?>
<svg id="_レイヤー_1" data-name="レイヤー 1" xmlns="http://www.w3.org/2000/svg" viewBox="0 0 256 256">
  <defs>
    <style>
      .cls-1 {
        fill: #404040;
      }

      .cls-1, .cls-2 {
        stroke-width: 0px;
      }

      .cls-2 {
        fill: #fff;
      }
    </style>
  </defs>
  <rect class="cls-1" y="58" width="256" height="140" rx="20" ry="20"/>
  <g>
    <path class="cls-2" d="m92.61,161.62h-12.8l-18.7-31.7-9.7,10.9v20.8h-11.3v-66.7h11.3v31.1l26.4-31.1h13.7l-23.3,26.7,24.4,40Z"/>
    <path class="cls-2" d="m150.5,104.22c4.8,5.9,7.6,15.2,7.6,25.2,0,19.9-12.3,33.6-30.3,33.6-9.4,0-17.9-3.9-23.4-10.7-4.7-5.8-7.1-13.7-7.1-23.6,0-21.3,11.9-35.1,30-35.1,9.3,0,17.9,3.9,23.2,10.6Zm-42.1,24.1c0,15.2,7.5,24.8,19.2,24.8s19-9.4,19-24.6-7.6-24.7-19.2-24.7-19,9.5-19,24.5Z"/>
    <path class="cls-2" d="m182.6,135.62v26h-11.1v-66.7h19c10.2,0,15.9,1.2,20.1,4.1,5.1,3.7,7.8,9.3,7.8,16.1,0,9.5-4.6,16.1-12.8,18.7l14.4,27.8h-12.4l-13.1-26h-11.9Zm9.8-9.7c7.3,0,8.5-.2,11-2,2.5-1.9,3.8-4.6,3.8-8,0-4.2-1.8-7.6-4.9-9.4-2-1.1-5.1-1.5-11-1.5h-8.7v20.9h9.8Z"/>
  </g>
</svg>