<?xml version="1.0" encoding="UTF-8" standalone="no"?>
<svg
   xmlns:dc="http://purl.org/dc/elements/1.1/"
   xmlns:cc="http://creativecommons.org/ns#"
   xmlns:rdf="http://www.w3.org/1999/02/22-rdf-syntax-ns#"
   xmlns:svg="http://www.w3.org/2000/svg"
   xmlns="http://www.w3.org/2000/svg"
   xmlns:sodipodi="http://sodipodi.sourceforge.net/DTD/sodipodi-0.dtd"
   xmlns:inkscape="http://www.inkscape.org/namespaces/inkscape"
   width="46.302101mm"
   height="48.118389mm"
   viewBox="0 0 46.302101 48.118389"
   version="1.1"
   id="svg8"
   inkscape:version="1.0.2-2 (e86c870879, 2021-01-15)"
   sodipodi:docname="公式ロゴ素材.svg">
  <defs
     id="defs2" />
  <sodipodi:namedview
     id="base"
     pagecolor="#ffffff"
     bordercolor="#666666"
     borderopacity="1.0"
     inkscape:pageopacity="0.0"
     inkscape:pageshadow="2"
     inkscape:zoom="2.8"
     inkscape:cx="111.20389"
     inkscape:cy="186.95344"
     inkscape:document-units="mm"
     inkscape:current-layer="layer1"
     inkscape:document-rotation="0"
     showgrid="false"
     fit-margin-top="0"
     fit-margin-left="0"
     fit-margin-right="0"
     fit-margin-bottom="0"
     inkscape:window-width="3840"
     inkscape:window-height="2080"
     inkscape:window-x="2869"
     inkscape:window-y="-11"
     inkscape:window-maximized="1" />
  <metadata
     id="metadata5">
    <rdf:RDF>
      <cc:Work
         rdf:about="">
        <dc:format>image/svg+xml</dc:format>
        <dc:type
           rdf:resource="http://purl.org/dc/dcmitype/StillImage" />
        <dc:title></dc:title>
      </cc:Work>
    </rdf:RDF>
  </metadata>
  <g
     inkscape:label="レイヤー 1"
     inkscape:groupmode="layer"
     id="layer1"
     transform="translate(-106.87276,-127.13128)">
    <g
       id="g863">
      <path
         id="path4097-2"
         style="fill:#33abff;fill-opacity:1;stroke:none;stroke-width:0.264583"
         d="m 134.65402,143.17079 2.64583,4.58266 0.52917,0.91623 c 0.13229,0.22913 0.13229,0.45868 0,0.68781 -0.26458,0.45827 -0.99219,-0.11477 -1.5875,0.22893 -0.59532,0.3437 -1.05834,1.83304 -0.13229,3.437 0.92604,1.60395 2.34581,2.00638 3.0427,1.60403 0.59532,-0.3437 0.56791,-1.26038 0.99219,-1.26038 0.26458,0 0.46302,0.1145 0.59531,0.34364 l 0.52917,0.91674 2.64583,4.58267 9.26042,-16.03933 z" />
      <path
         id="path3084-5-9"
         style="fill:#ffdb33;fill-opacity:1;stroke:none;stroke-width:0.264583"
         d="m 125.3936,139.50435 c -0.34727,0 -0.66682,0.0362 -0.95653,0.10025 -0.19314,0.0427 -0.37272,0.0977 -0.53898,0.16278 -0.33254,0.1301 -0.61056,0.30023 -0.82941,0.49041 -0.0548,0.0476 -0.1056,0.0964 -0.15296,0.14624 -0.0472,0.0497 -0.0911,0.10013 -0.13075,0.15141 0,0 0,5.3e-4 0,5.3e-4 -0.0793,0.10267 -0.14332,0.20772 -0.19171,0.31316 0,0 0,5.3e-4 0,5.3e-4 -0.0725,0.1582 -0.11008,0.31694 -0.11008,0.46767 0,0.42963 0.31547,0.76062 0.50023,1.03818 0.037,0.0555 0.0685,0.10863 0.0915,0.1602 0.0115,0.0259 0.0207,0.0514 0.0274,0.0765 0.007,0.0249 0.0106,0.0492 0.0114,0.0734 0.002,0.0486 -0.009,0.0955 -0.0351,0.1416 -0.0331,0.0573 -0.0703,0.10742 -0.11162,0.15037 -0.0827,0.0859 -0.1819,0.14293 -0.29765,0.17157 -0.0579,0.0143 -0.11989,0.0217 -0.18604,0.0217 h -1.04852 -5.30149 l 2.64584,4.58266 0.52916,0.91623 c 0.1323,0.22913 0.1323,0.45868 0,0.68781 -0.26457,0.45827 -0.99218,-0.11478 -1.5875,0.22892 -0.59531,0.34371 -1.05833,1.83305 -0.13229,3.437 0.92604,1.60396 2.34582,2.00639 3.04271,1.60404 0.59531,-0.3437 0.5679,-1.26039 0.99219,-1.26039 0.26458,0 0.46302,0.11451 0.59531,0.34365 l 0.52917,0.91674 2.64583,4.58267 3.175,-5.49941 c 0.13229,-0.22914 0.13229,-0.45816 0,-0.6873 -0.21214,-0.36743 -0.99219,0.11478 -1.5875,-0.22892 -0.69689,-0.40235 -1.05833,-1.83305 -0.13229,-3.437 0.92604,-1.60395 2.44739,-1.94774 3.04271,-1.60404 0.59531,0.34372 0.46302,1.26038 0.99218,1.26039 0.26459,0 0.46303,-0.11503 0.59532,-0.34416 l 3.175,-5.49889 h -5.27772 -1.07228 c -0.0662,0 -0.12816,-0.007 -0.18604,-0.0217 -0.11575,-0.0286 -0.21497,-0.0856 -0.29765,-0.17157 -0.0413,-0.043 -0.0785,-0.0931 -0.11163,-0.15037 -0.0165,-0.0286 -0.0285,-0.0569 -0.0367,-0.0847 -0.0158,-0.0534 -0.0168,-0.10587 -0.007,-0.15762 2.6e-4,-0.002 -2e-5,-0.004 5.2e-4,-0.006 0,0 0,-5.3e-4 0,-5.3e-4 0.005,-0.027 0.014,-0.0538 0.0248,-0.0806 0.0434,-0.10741 0.12609,-0.21461 0.21704,-0.32918 0.091,-0.11457 0.19017,-0.23654 0.26665,-0.37259 0.0191,-0.034 0.0369,-0.069 0.0527,-0.1049 0.0316,-0.0718 0.0552,-0.14763 0.0677,-0.22841 0.006,-0.0404 0.01,-0.0821 0.01,-0.12506 0,-0.043 -0.004,-0.0877 -0.0124,-0.13384 -0.041,-0.23066 -0.18388,-0.49613 -0.42013,-0.74776 -0.0474,-0.0504 -0.0981,-0.10042 -0.15296,-0.14934 -0.27356,-0.24417 -0.63924,-0.4647 -1.08882,-0.61237 -0.17984,-0.0591 -0.37311,-0.10634 -0.5793,-0.13901 -0.20619,-0.0327 -0.42529,-0.0506 -0.6568,-0.0506 z" />
      <path
         style="fill:#33c3ff;fill-opacity:1;stroke:none;stroke-width:0.264583"
         d="m 143.91444,159.21016 9.26042,16.03951 h -18.52084 z"
         id="path4097-1-2"
         inkscape:connector-curvature="0"
         sodipodi:nodetypes="cccc"
         inkscape:export-filename="C:\Apache Software Foundation\Apache2.2\htdocs\lbs\file\other\33.png"
         inkscape:export-xdpi="288.21326"
         inkscape:export-ydpi="288.21326" />
      <path
         style="fill:#ffab33;fill-opacity:1;stroke:none;stroke-width:0.264583"
         d="m 106.87276,159.2103 h 18.52084 l -3.175,-5.49926 c -0.13229,-0.22914 -0.33073,-0.3437 -0.59531,-0.3437 -0.42428,0 -0.39687,0.91654 -0.99219,1.26025 -0.69689,0.40234 -2.11666,0 -3.0427,-1.60396 -0.92604,-1.60395 -0.46302,-3.09333 0.13229,-3.43703 0.59531,-0.3437 1.32291,0.22913 1.58749,-0.22914 0.1323,-0.22913 0.1323,-0.45827 0,-0.68741 l -3.175,-5.49926 z"
         id="path3084-51-0-38"
         inkscape:connector-curvature="0"
         sodipodi:nodetypes="ccssscssccc"
         inkscape:export-filename="C:\Apache Software Foundation\Apache2.2\htdocs\lbs\file\other\33.png"
         inkscape:export-xdpi="288.21326"
         inkscape:export-ydpi="288.21326" />
      <path
         style="fill:#ff9433;fill-opacity:1;stroke:none;stroke-width:0.264583"
         d="m 125.3936,127.13128 -9.26042,16.03951 h 6.35001 c 0.26458,0 0.46301,-0.11457 0.5953,-0.34371 0.21214,-0.36743 -0.59531,-0.80197 -0.59531,-1.48938 0,-0.80469 1.05833,-1.83308 2.91042,-1.83308 1.85208,0 2.91042,1.14568 2.91041,1.83308 0,0.68742 -0.85989,1.03112 -0.5953,1.48939 0.13228,0.22914 0.33072,0.3437 0.59531,0.3437 h 6.34999 z"
         id="path3084-8-8"
         inkscape:connector-curvature="0"
         sodipodi:nodetypes="ccssscssccc"
         inkscape:export-filename="C:\Apache Software Foundation\Apache2.2\htdocs\lbs\file\other\33.png"
         inkscape:export-xdpi="288.21326"
         inkscape:export-ydpi="288.21326" />
      <path
         id="path3084-51-7-3-95"
         style="fill:#ffc333;fill-opacity:1;stroke:none;stroke-width:0.264583"
         d="m 134.65402,143.17079 -2.64584,4.58266 -0.52916,0.91623 c -0.13229,0.22913 -0.33073,0.34416 -0.59532,0.34416 -0.52916,0 -0.39687,-0.91667 -0.99218,-1.26039 -0.59532,-0.3437 -2.11667,9e-5 -3.04271,1.60404 -0.92604,1.60395 -0.5646,3.03465 0.13229,3.437 0.59531,0.3437 1.37536,-0.13851 1.5875,0.22893 0.13229,0.22913 0.13229,0.45815 0,0.68729 l -0.53692,0.93069 -2.63808,4.56872 h 18.52083 l -3.175,-5.49941 c -0.13229,-0.22914 -0.33073,-0.34364 -0.59531,-0.34364 -0.42428,0 -0.39687,0.91668 -0.99219,1.26038 -0.69689,0.40235 -2.11666,-8e-5 -3.0427,-1.60403 -0.92605,-1.60396 -0.46303,-3.0933 0.13229,-3.437 0.59531,-0.3437 1.32292,0.22934 1.5875,-0.22893 0.13229,-0.22913 0.13229,-0.45868 0,-0.68781 z" />
    </g>
  </g>
</svg>
